<?xml version="1.0" encoding="UTF-8" standalone="no"?>
<!-- Created with Inkscape (http://www.inkscape.org/) -->

<svg
   xmlns:dc="http://purl.org/dc/elements/1.1/"
   xmlns:cc="http://creativecommons.org/ns#"
   xmlns:rdf="http://www.w3.org/1999/02/22-rdf-syntax-ns#"
   xmlns:svg="http://www.w3.org/2000/svg"
   xmlns="http://www.w3.org/2000/svg"
   xmlns:sodipodi="http://sodipodi.sourceforge.net/DTD/sodipodi-0.dtd"
   xmlns:inkscape="http://www.inkscape.org/namespaces/inkscape"
   width="160mm"
   height="12mm"
   viewBox="0 0 566.92913 42.519685"
   id="svg7938"
   version="1.1"
   inkscape:version="0.91 r13725"
   sodipodi:docname="dividers-4869416_ornate_divider.svg"
   inkscape:export-filename="/media/kreuvf/20150109_1/berlin/Dauerprojekte/DSA/DSA4/Spielhilfe/Isus Spielhilfen/dsa-sucht-drogen/tex/res/dividers-4869416_ornate_divider_600dpi.png"
   inkscape:export-xdpi="600"
   inkscape:export-ydpi="600">
  <defs
     id="defs7940" />
  <sodipodi:namedview
     id="base"
     pagecolor="#ffffff"
     bordercolor="#666666"
     borderopacity="1.0"
     inkscape:pageopacity="0.0"
     inkscape:pageshadow="2"
     inkscape:zoom="0.98994949"
     inkscape:cx="33.070545"
     inkscape:cy="15.77695"
     inkscape:document-units="px"
     inkscape:current-layer="layer1"
     showgrid="false"
     fit-margin-top="0"
     fit-margin-left="0"
     fit-margin-right="0"
     fit-margin-bottom="0"
     inkscape:showpageshadow="false"
     inkscape:window-width="1867"
     inkscape:window-height="1056"
     inkscape:window-x="1973"
     inkscape:window-y="24"
     inkscape:window-maximized="1" />
  <metadata
     id="metadata7943">
    <rdf:RDF>
      <cc:Work
         rdf:about="">
        <dc:format>image/svg+xml</dc:format>
        <dc:type
           rdf:resource="http://purl.org/dc/dcmitype/StillImage" />
        <dc:title></dc:title>
      </cc:Work>
    </rdf:RDF>
  </metadata>
  <g
     inkscape:label="Layer 1"
     inkscape:groupmode="layer"
     id="layer1"
     transform="translate(-136.05052,-76.355314)">
    <path
       style="fill:#0b2c80;fill-opacity:1;fill-rule:evenodd;stroke:none;stroke-width:0.17716534;stroke-miterlimit:4;stroke-dasharray:none;stroke-opacity:1"
       d="m 214.2117,86.70887 c -14.62662,-0.324774 -28.904,1.576707 -42.62553,5.285142 -0.24801,0.49601 8.7e-4,0.98716 0.24757,1.23516 13.10456,-2.47314 26.94826,-4.94252 40.54537,-4.448236 19.28742,0.742287 37.58379,4.448016 55.63118,8.404006 15.08167,2.22514 30.16219,5.439498 46.23417,4.450928 9.14683,0 18.78987,-1.48177 27.69043,-3.460638 2.47315,2.719428 5.93259,3.707378 9.3943,4.203348 10.87769,1.23485 18.79075,-5.935268 28.18559,-8.406688 -1.73085,2.22513 -3.21348,4.69655 -2.96548,7.663978 0.24628,2.71942 1.7315,5.68696 4.45093,6.18124 1.73085,0.49429 3.21165,-4.2e-4 4.44822,-0.74271 0.98857,-0.74229 1.977,-2.22536 1.48276,-3.70821 -0.24802,-0.74229 -0.4929,-1.97833 -1.23518,-1.73032 -0.49428,0.98857 -1.73204,1.97747 -2.72061,2.22547 -1.23657,0 -2.46947,-0.49375 -2.96548,-1.73032 -0.74057,-0.98857 -0.74144,-2.473358 -0.49516,-3.708208 3.21543,-7.6657 12.85635,-6.67638 20.27405,-6.67638 l 0.49514,0.49514 c -2.22514,0.98856 -4.70025,3.21339 -5.68878,5.43853 -0.4943,1.73085 -0.24542,3.955228 0.49514,5.686088 0.744,1.97714 2.71824,3.95578 4.94337,3.95578 1.73086,0 2.96862,-0.49374 3.7109,-1.73031 0.74057,-1.48458 0.73971,-3.21436 -0.49515,-4.45093 -0.74056,-0.49428 -1.23689,0.74229 -2.22546,0.99029 -0.99029,0.24801 -2.22277,0.24713 -3.21306,-0.49515 -0.49428,-0.49428 -0.99029,-1.23646 -0.99029,-2.473028 -0.24627,-1.73086 1.48405,-2.96678 2.72061,-4.20335 5.43885,-3.21371 11.8683,-0.49267 16.56314,2.47303 -1.97714,1.73086 -4.44898,2.721798 -6.42612,4.450928 3.46171,1.97885 6.42784,4.69656 9.39699,6.67369 2.96571,-2.47142 6.17791,-4.69613 9.39162,-6.92127 -1.97714,-1.23657 -3.70724,-2.472918 -5.6861,-3.955768 -0.24628,0 -0.49558,-0.49471 -0.24757,-0.74271 2.71942,-0.98858 4.94499,-2.46981 7.41641,-3.21038 4.20399,-0.49601 8.40659,0.2451 10.87974,3.95309 0.49428,0.98856 0.74529,1.97649 0.24756,3.213058 -0.24628,0.98856 -1.23517,1.48545 -2.22546,1.48542 -1.48285,0.2463 -2.47164,-0.49686 -3.7082,-1.48542 -0.49429,0.74228 -0.98986,1.48489 -1.23787,2.22545 -0.24628,1.48457 8.7e-4,2.72105 1.23787,3.46334 1.23656,0.74228 2.96979,0.98673 4.45092,0.49245 2.71942,-0.98857 4.20335,-3.70627 4.20335,-6.67369 -0.24629,-3.707998 -2.72212,-6.428288 -5.68609,-8.159138 l 0.49245,-0.24756 c 6.42741,-0.24628 13.84845,-0.74122 18.79129,4.20335 0.98856,1.48285 1.97617,3.70895 0.9876,5.686088 -0.49256,1.23656 -1.72848,2.22417 -3.21306,1.97789 -1.23657,-0.248 -1.97694,-1.48278 -2.96548,-2.47303 -0.74056,0.49424 -0.74229,1.48489 -0.99031,2.22546 -0.496,1.23656 0.2493,2.47206 1.23787,3.46063 1.23657,0.74229 2.71609,1.48457 4.20066,0.99029 2.22514,-0.24629 3.95492,-2.22579 4.45093,-4.45092 1.48457,-3.21371 -0.49632,-6.921588 -2.22547,-9.146738 l 0.24758,-0.24757 c 4.45027,0.98857 8.65362,3.70896 12.85762,5.68609 7.1697,3.213708 18.04685,4.696998 24.72227,-1.23785 7.1697,1.484578 14.83379,2.721038 22.4995,3.463318 37.33135,2.22514 71.45309,-11.372948 108.04388,-13.350084 13.59884,-0.246281 26.94837,1.975096 40.05292,4.448236 l 0.24489,-1.23516 c -5.18912,-1.73086 -10.8763,-2.471643 -16.56315,-3.708214 -41.04107,-6.67542 -77.1368,10.631624 -116.94302,11.372194 -3.21371,0.742288 -6.18286,0.24756 -9.64457,0.24756 l -0.49245,-0.49513 c 2.47315,-1.48286 5.19008,-3.70757 4.6958,-6.92128 -0.248,-1.23657 -0.9876,-2.22632 -1.97789,-2.7206 -1.73086,-1.234851 -4.20282,-0.247249 -5.93367,0.9876 -0.248,0.248 -0.24843,0.7454 0.24758,0.7454 1.48285,-0.248 2.7205,-0.74357 4.20335,-0.24756 0.98857,0.248 1.48274,1.23646 1.48274,2.47303 -0.24629,1.23485 -1.23517,2.2218 -2.22546,3.21038 -7.66398,4.698268 -17.55386,0.99029 -25.96013,0 l -0.49245,-0.2449 c 0.49428,-1.48457 0.74045,-2.7205 0.49245,-4.20335 -0.49429,-1.97885 -1.72925,-3.460203 -4.20067,-3.708206 -1.73085,-0.246281 -3.21606,0.495909 -4.45091,1.482756 1.73085,0.49428 2.96678,1.48306 4.20335,2.71791 0.49429,0.99029 0.98674,1.97831 0.49245,2.7206 -15.32797,-2.72114 -29.91451,-9.394836 -46.47906,-8.654271 -10.8794,0.248003 -19.78103,4.944561 -29.17587,8.654271 l -10.62947,-4.69848 c -9.64284,-4.202278 -22.00641,-4.694633 -32.88409,-2.9655 l -31.15108,7.41641 -0.49515,0 c -0.24801,-0.98857 0.24715,-1.72903 0.49515,-2.47303 0.98857,-1.72914 2.7205,-2.47078 4.20335,-3.21306 -1.48285,-1.234851 -3.21381,-1.977028 -5.19095,-1.482744 -1.23657,0.248003 -2.2259,1.729354 -2.96819,2.717924 -0.98856,1.73085 0.24671,3.71207 -0.24757,5.4412 -2.72112,0.49428 -5.4397,0.98803 -8.15912,1.73031 -6.67542,0.49429 -15.32861,2.224068 -19.7789,-4.20334 -0.496,-0.99029 -0.25026,-2.71974 0.74003,-3.21575 1.23485,-0.49428 2.22578,-0.49289 3.46064,-0.24489 0.496,0 1.48812,0.74273 1.48812,-0.24756 -1.23656,-1.482852 -3.2165,-1.97704 -5.19364,-1.482756 -1.23656,0.248003 -2.22804,1.728926 -2.72061,2.965496 -0.496,3.45999 2.22708,5.68696 4.6985,7.17154 -8.90056,0.74056 -18.54414,-0.24931 -26.95042,-1.23787 -20.02624,-2.9657 -38.56944,-7.41804 -58.59396,-9.889456 -4.94542,-0.618285 -9.86041,-0.973523 -14.73594,-1.081776 z m 168.97361,1.94021 c 3.57721,-0.347644 7.209,-0.362428 10.91742,0.131856 l 0,0.247576 c -3.33772,0.123574 -6.53748,0.647136 -9.64725,1.42355 -3.10979,0.77637 -6.12947,1.80523 -9.11175,2.93319 -5.96455,2.25592 -11.77616,4.91302 -17.8333,6.767878 -2.102,0.37028 -4.38795,0.4946 -6.52029,0.18569 -1.06619,-0.15447 -2.09456,-0.418758 -3.04084,-0.812698 -0.9463,-0.39394 -1.81234,-0.9186 -2.55377,-1.59844 0.98856,-0.6183 2.04,-0.98911 3.12157,-1.26748 1.08157,-0.27836 2.19467,-0.46328 3.30724,-0.71042 6.92256,-1.48372 13.78462,-3.76988 20.76918,-5.43853 3.49229,-0.834308 7.01461,-1.514512 10.59179,-1.862172 z m 67.15944,0.161464 c 1.74951,-0.0388 3.47761,0.03126 5.19094,0.185672 3.42667,0.308832 6.7877,0.959196 10.11011,1.762616 6.64486,1.60685 13.13599,3.83123 19.68741,5.19095 2.71942,0.74228 5.19395,1.23689 7.41909,2.22545 -0.37114,0.55629 -0.85097,0.98783 -1.40739,1.32398 -0.55642,0.33617 -1.19029,0.575338 -1.87024,0.745408 -1.35993,0.34014 -2.90533,0.40366 -4.38904,0.40366 -2.34872,0 -4.54268,-0.35664 -6.6441,-0.928398 -2.1014,-0.57175 -4.10927,-1.36015 -6.08704,-2.22547 -1.9778,-0.86531 -3.92624,-1.80763 -5.90407,-2.68831 -1.97784,-0.88069 -3.98549,-1.6991 -6.08706,-2.31696 -2.47314,-0.86628 -5.00743,-1.54527 -7.57248,-2.03978 -2.56508,-0.49449 -5.1619,-0.805252 -7.75817,-0.928399 l 0,-0.244875 c 1.79241,-0.278356 3.56253,-0.426759 5.31204,-0.465544 z m -31.51706,9.117138 c 0.98857,0.37028 1.91459,0.92634 2.7798,1.54463 0.86522,0.618278 1.66973,1.297698 2.41114,1.915998 l -0.25026,0.49514 -4.69311,3.21306 -5.19364,-3.21306 0.24758,-0.49514 4.69849,-3.460628 z"
       id="path1306-6"
       inkscape:connector-curvature="0" />
  </g>
</svg>
