<?xml version="1.0" encoding="UTF-8" standalone="no"?>
<!-- Created with Inkscape (http://www.inkscape.org/) -->

<svg
   xmlns:dc="http://purl.org/dc/elements/1.1/"
   xmlns:cc="http://creativecommons.org/ns#"
   xmlns:rdf="http://www.w3.org/1999/02/22-rdf-syntax-ns#"
   xmlns:svg="http://www.w3.org/2000/svg"
   xmlns="http://www.w3.org/2000/svg"
   xmlns:sodipodi="http://sodipodi.sourceforge.net/DTD/sodipodi-0.dtd"
   xmlns:inkscape="http://www.inkscape.org/namespaces/inkscape"
   width="210mm"
   height="297mm"
   viewBox="0 0 744.09448819 1052.3622047"
   id="svg2"
   version="1.1"
   inkscape:version="0.91 r13725"
   sodipodi:docname="dividers-4869416_frame_from_scratch.svg"
   enable-background="new">
  <defs
     id="defs4" />
  <sodipodi:namedview
     id="base"
     pagecolor="#ffffff"
     bordercolor="#666666"
     borderopacity="1.0"
     inkscape:pageopacity="0.0"
     inkscape:pageshadow="2"
     inkscape:zoom="0.70710678"
     inkscape:cx="477.71923"
     inkscape:cy="597.69007"
     inkscape:document-units="px"
     inkscape:current-layer="layer1"
     showgrid="false"
     inkscape:snap-page="true"
     inkscape:snap-bbox="true"
     inkscape:bbox-paths="false"
     inkscape:bbox-nodes="true"
     inkscape:snap-bbox-edge-midpoints="false"
     inkscape:snap-bbox-midpoints="false"
     inkscape:snap-global="true"
     inkscape:showpageshadow="false"
     inkscape:object-paths="true"
     inkscape:object-nodes="true"
     inkscape:snap-nodes="true"
     showguides="true"
     inkscape:guide-bbox="true"
     inkscape:window-width="1233"
     inkscape:window-height="795"
     inkscape:window-x="2530"
     inkscape:window-y="139"
     inkscape:window-maximized="0"
     inkscape:snap-grids="true">
    <inkscape:grid
       type="xygrid"
       id="grid6351"
       dotted="false"
       color="#00be58"
       opacity="0.1254902"
       units="mm"
       spacingx="3.5433071"
       spacingy="3.5433072" />
  </sodipodi:namedview>
  <metadata
     id="metadata7">
    <rdf:RDF>
      <cc:Work
         rdf:about="">
        <dc:format>image/svg+xml</dc:format>
        <dc:type
           rdf:resource="http://purl.org/dc/dcmitype/StillImage" />
        <dc:title />
      </cc:Work>
    </rdf:RDF>
  </metadata>
  <g
     inkscape:label="einzelformen"
     inkscape:groupmode="layer"
     id="layer1"
     style="display:none"
     sodipodi:insensitive="true">
    <path
       id="path6353-6"
       style="color:#000000;clip-rule:nonzero;display:inline;overflow:visible;visibility:visible;opacity:1;isolation:auto;mix-blend-mode:normal;color-interpolation:sRGB;color-interpolation-filters:linearRGB;solid-color:#000000;solid-opacity:1;fill:none;fill-opacity:1;fill-rule:evenodd;stroke:#0b2c80;stroke-width:2.12598419;stroke-linecap:butt;stroke-linejoin:miter;stroke-miterlimit:4;stroke-dasharray:none;stroke-dashoffset:0;stroke-opacity:1;color-rendering:auto;image-rendering:auto;shape-rendering:auto;text-rendering:auto;enable-background:accumulate"
       d="m 14.173228,973.72784 0,31.97396 53.85837,0 c 5.303213,5.331 11.90437,16.2437 15.652411,16.2437 l -69.510781,0 0,16.2435 16.157512,0 0,-70.38872 c 1.73064,3.34891 10.849084,10.90732 16.157511,16.24354 l 0,54.14518 31.848797,0"
       inkscape:connector-curvature="0"
       sodipodi:nodetypes="ccccccccccc" />
    <path
       style="color:#000000;clip-rule:nonzero;display:inline;overflow:visible;visibility:visible;opacity:1;isolation:auto;mix-blend-mode:normal;color-interpolation:sRGB;color-interpolation-filters:linearRGB;solid-color:#000000;solid-opacity:1;fill:#ffffff;fill-opacity:1;fill-rule:evenodd;stroke:none;stroke-width:3.54330707;stroke-linecap:butt;stroke-linejoin:miter;stroke-miterlimit:4;stroke-dasharray:none;stroke-dashoffset:0;stroke-opacity:1;marker:none;color-rendering:auto;image-rendering:auto;shape-rendering:auto;text-rendering:auto;enable-background:accumulate"
       d="m 41.327917,1013.7903 a 1.9488189,2.9232283 45 0 1 -3.445034,0.689 1.9488189,2.9232283 45 0 1 0.688988,-3.445 1.9488189,2.9232283 45 0 1 3.445062,-0.6891 1.9488189,2.9232283 45 0 1 -0.689016,3.4451 z"
       id="path6403-5"
       inkscape:connector-curvature="0" />
    <path
       id="path6353-6-6"
       style="color:#000000;clip-rule:nonzero;display:inline;overflow:visible;visibility:visible;opacity:1;isolation:auto;mix-blend-mode:normal;color-interpolation:sRGB;color-interpolation-filters:linearRGB;solid-color:#000000;solid-opacity:1;fill:none;fill-opacity:1;fill-rule:evenodd;stroke:#0b2c80;stroke-width:2.12598419;stroke-linecap:butt;stroke-linejoin:miter;stroke-miterlimit:4;stroke-dasharray:none;stroke-dashoffset:0;stroke-opacity:1;color-rendering:auto;image-rendering:auto;shape-rendering:auto;text-rendering:auto;enable-background:accumulate"
       d="m 333.07087,1038.189 21.25984,0 0,-21.2599 -14.17323,0 0,14.1733 24.80315,0 0,-24.8032 -14.17323,0 0,-28.34646 -14.17323,0 0,14.17323 70.86614,-1e-5 0,-14.17322 -14.17322,0 0,28.34646 -14.17323,0 0,24.8032 10.62992,0 14.17323,0 0,-14.1733 -14.17323,0 0,21.2599 63.77953,0"
       inkscape:connector-curvature="0"
       sodipodi:nodetypes="ccccccccccccccccccccccc" />
    <path
       id="path6353-6-3"
       style="color:#000000;clip-rule:nonzero;display:inline;overflow:visible;visibility:visible;opacity:1;isolation:auto;mix-blend-mode:normal;color-interpolation:sRGB;color-interpolation-filters:linearRGB;solid-color:#000000;solid-opacity:1;fill:none;fill-opacity:1;fill-rule:evenodd;stroke:#0b2c80;stroke-width:2.12598419;stroke-linecap:butt;stroke-linejoin:miter;stroke-miterlimit:4;stroke-dasharray:none;stroke-dashoffset:0;stroke-opacity:1;color-rendering:auto;image-rendering:auto;shape-rendering:auto;text-rendering:auto;enable-background:accumulate"
       d="m 665.4601,1038.189 31.97396,0 0,-53.85836 c 5.331,-5.30321 16.2437,-11.90437 16.2437,-15.65241 l 0,69.51077 16.2435,0 0,-16.1575 -70.38872,0 c 3.34891,-1.7306 10.90732,-10.8491 16.24354,-16.1575 l 54.14518,0 0,-31.84881"
       inkscape:connector-curvature="0"
       sodipodi:nodetypes="ccccccccccc" />
    <path
       id="path6353-6-9"
       style="color:#000000;clip-rule:nonzero;display:inline;overflow:visible;visibility:visible;opacity:1;isolation:auto;mix-blend-mode:normal;color-interpolation:sRGB;color-interpolation-filters:linearRGB;solid-color:#000000;solid-opacity:1;fill:none;fill-opacity:1;fill-rule:evenodd;stroke:#0b2c80;stroke-width:2.12598419;stroke-linecap:butt;stroke-linejoin:miter;stroke-miterlimit:4;stroke-dasharray:none;stroke-dashoffset:0;stroke-opacity:1;color-rendering:auto;image-rendering:auto;shape-rendering:auto;text-rendering:auto;enable-background:accumulate"
       d="m 729.92126,78.634378 0,-31.973961 -53.85837,0 c -5.30321,-5.331 -11.90437,-16.2437 -15.65241,-16.2437 l 69.51078,0 0,-16.2435 -16.15751,0 0,70.388721 c -1.73064,-3.34891 -10.84909,-10.90732 -16.15751,-16.24354 l 0,-54.145181 -31.8488,0"
       inkscape:connector-curvature="0"
       sodipodi:nodetypes="ccccccccccc" />
    <path
       id="path6353-6-4"
       style="color:#000000;clip-rule:nonzero;display:inline;overflow:visible;visibility:visible;opacity:1;isolation:auto;mix-blend-mode:normal;color-interpolation:sRGB;color-interpolation-filters:linearRGB;solid-color:#000000;solid-opacity:1;fill:none;fill-opacity:1;fill-rule:evenodd;stroke:#0b2c80;stroke-width:2.12598419;stroke-linecap:butt;stroke-linejoin:miter;stroke-miterlimit:4;stroke-dasharray:none;stroke-dashoffset:0;stroke-opacity:1;color-rendering:auto;image-rendering:auto;shape-rendering:auto;text-rendering:auto;enable-background:accumulate"
       d="m 78.634391,14.173217 -31.97396,0 0,53.858372 c -5.331,5.30321 -16.243703,11.90437 -16.243703,15.65241 l 0,-69.510782 -16.2435,0 0,16.157512 70.388723,0 c -3.34891,1.73064 -10.90732,10.849084 -16.24354,16.157511 l -54.145183,0 0,31.848799"
       inkscape:connector-curvature="0"
       sodipodi:nodetypes="ccccccccccc" />
  </g>
  <g
     style="display:inline"
     id="g6474"
     inkscape:groupmode="layer"
     inkscape:label="gesamt">
    <path
       id="path6486"
       style="color:#000000;clip-rule:nonzero;display:inline;overflow:visible;visibility:visible;opacity:1;isolation:auto;mix-blend-mode:normal;color-interpolation:sRGB;color-interpolation-filters:linearRGB;solid-color:#000000;solid-opacity:1;fill:none;fill-opacity:1;fill-rule:evenodd;stroke:#0b2c80;stroke-width:1.41732287;stroke-linecap:butt;stroke-linejoin:miter;stroke-miterlimit:4;stroke-dasharray:none;stroke-dashoffset:0;stroke-opacity:1;color-rendering:auto;image-rendering:auto;shape-rendering:auto;text-rendering:auto;enable-background:accumulate"
       d="m 14.173228,1005.7018 53.85837,0 c 5.303213,5.331 11.90437,16.2437 15.652411,16.2437 l -69.510781,0 0,16.2435 16.157512,0 0,-70.38872 c 1.73064,3.34891 10.849084,10.90732 16.157511,16.24354 l 0,54.14518 307.842459,0 0,-21.2599 -14.17323,0 0,14.1733 24.80315,0 0,-24.8032 -14.17323,0 0,-28.34646 -14.17323,0 0,14.17323 70.86614,-1e-5 0,-14.17322 -14.17322,0 0,28.34646 -14.17323,0 0,24.8032 10.62992,0 14.17323,0 0,-14.1733 -14.17323,0 0,21.2599 307.67028,0 0,-53.85836 c 5.331,-5.30321 16.2437,-11.90437 16.2437,-15.65241 l 0,69.51077 16.2435,0 0,-16.1575 -70.38872,0 c 3.34891,-1.7306 10.90732,-10.8491 16.24354,-16.1575 l 54.14518,0 0,-959.213583 -53.85837,0 c -5.30321,-5.331 -11.90437,-16.2437 -15.65241,-16.2437 l 69.51078,0 0,-16.2435 -16.15751,0 0,70.388721 c -1.73064,-3.34891 -10.84909,-10.90732 -16.15751,-16.24354 l 0,-54.145181 -650.945809,0 0,53.858372 c -5.331,5.30321 -16.243703,11.90437 -16.243703,15.65241 l 0,-69.510782 -16.2435,0 0,16.157512 70.388723,0 c -3.34891,1.73064 -10.90732,10.849084 -16.24354,16.157511 l -54.145183,0 z"
       inkscape:connector-curvature="0"
       sodipodi:nodetypes="cccccccccccccccccccccccccccccccccccccccccccccccccccccccccc" />
  </g>
</svg>
